<svg width="173" height="84" viewBox="0 0 173 84" fill="none" xmlns="http://www.w3.org/2000/svg">
<g filter="url(#filter0_d_10_1163)">
<rect x="22" y="16" width="131" height="48" rx="24" fill="#8257E5"/>
<path d="M46.3749 48.25H38.4718C38.3767 48.2513 38.2822 48.2334 38.1941 48.1976C38.1059 48.1618 38.0258 48.1087 37.9586 48.0414C37.8913 47.9741 37.8382 47.894 37.8023 47.8059C37.7665 47.7177 37.7487 47.6233 37.7499 47.5281V39.625C37.7499 37.3375 38.6586 35.1437 40.2761 33.5262C41.8936 31.9087 44.0874 31 46.3749 31C47.5076 31 48.6292 31.2231 49.6756 31.6565C50.722 32.09 51.6728 32.7253 52.4737 33.5262C53.2746 34.3271 53.91 35.2779 54.3434 36.3244C54.7768 37.3708 54.9999 38.4923 54.9999 39.625C54.9999 40.7577 54.7768 41.8792 54.3434 42.9256C53.91 43.9721 53.2746 44.9229 52.4737 45.7238C51.6728 46.5247 50.722 47.16 49.6756 47.5935C48.6292 48.0269 47.5076 48.25 46.3749 48.25Z" stroke="white" stroke-width="1.5" stroke-linecap="round" stroke-linejoin="round"/>
<path d="M47.4531 40C47.4531 40.5954 46.9704 41.0781 46.375 41.0781C45.7796 41.0781 45.2969 40.5954 45.2969 40C45.2969 39.4046 45.7796 38.9219 46.375 38.9219C46.9704 38.9219 47.4531 39.4046 47.4531 40Z" fill="white" stroke="white" stroke-width="0.09375"/>
<path d="M42.9531 40C42.9531 40.5954 42.4704 41.0781 41.875 41.0781C41.2796 41.0781 40.7969 40.5954 40.7969 40C40.7969 39.4046 41.2796 38.9219 41.875 38.9219C42.4704 38.9219 42.9531 39.4046 42.9531 40Z" fill="white" stroke="white" stroke-width="0.09375"/>
<path d="M51.9531 40C51.9531 40.5954 51.4704 41.0781 50.875 41.0781C50.2796 41.0781 49.7969 40.5954 49.7969 40C49.7969 39.4046 50.2796 38.9219 50.875 38.9219C51.4704 38.9219 51.9531 39.4046 51.9531 40Z" fill="white" stroke="white" stroke-width="0.09375"/>
<path d="M67.2784 46V34.3636H74.4943V35.875H69.0341V39.4205H73.9773V40.9261H69.0341V46H67.2784ZM79.6378 46.1761C78.7779 46.1761 78.0374 45.9924 77.4162 45.625C76.7988 45.2538 76.3215 44.733 75.9844 44.0625C75.651 43.3883 75.4844 42.5985 75.4844 41.6932C75.4844 40.7992 75.651 40.0114 75.9844 39.3295C76.3215 38.6477 76.7912 38.1155 77.3935 37.733C77.9995 37.3504 78.7079 37.1591 79.5185 37.1591C80.0109 37.1591 80.4882 37.2405 80.9503 37.4034C81.4124 37.5663 81.8272 37.822 82.1946 38.1705C82.562 38.5189 82.8518 38.9716 83.0639 39.5284C83.276 40.0814 83.3821 40.7538 83.3821 41.5455V42.1477H76.4446V40.875H81.7173C81.7173 40.428 81.6264 40.0322 81.4446 39.6875C81.2628 39.339 81.0071 39.0644 80.6776 38.8636C80.3518 38.6629 79.9692 38.5625 79.5298 38.5625C79.0526 38.5625 78.6359 38.6799 78.2798 38.9148C77.9276 39.1458 77.6548 39.4489 77.4616 39.8239C77.2723 40.1951 77.1776 40.5985 77.1776 41.0341V42.0284C77.1776 42.6117 77.2798 43.108 77.4844 43.517C77.6927 43.9261 77.9825 44.2386 78.3537 44.4545C78.7249 44.6667 79.1586 44.7727 79.6548 44.7727C79.9768 44.7727 80.2704 44.7273 80.5355 44.6364C80.8007 44.5417 81.0298 44.4015 81.223 44.2159C81.4162 44.0303 81.5639 43.8011 81.6662 43.5284L83.2741 43.8182C83.1454 44.2917 82.9143 44.7064 82.581 45.0625C82.2514 45.4148 81.8366 45.6894 81.3366 45.8864C80.8404 46.0795 80.2741 46.1761 79.6378 46.1761ZM89.0284 46.1761C88.1686 46.1761 87.428 45.9924 86.8068 45.625C86.1894 45.2538 85.7121 44.733 85.375 44.0625C85.0417 43.3883 84.875 42.5985 84.875 41.6932C84.875 40.7992 85.0417 40.0114 85.375 39.3295C85.7121 38.6477 86.1818 38.1155 86.7841 37.733C87.3902 37.3504 88.0985 37.1591 88.9091 37.1591C89.4015 37.1591 89.8788 37.2405 90.3409 37.4034C90.803 37.5663 91.2178 37.822 91.5852 38.1705C91.9527 38.5189 92.2424 38.9716 92.4545 39.5284C92.6667 40.0814 92.7727 40.7538 92.7727 41.5455V42.1477H85.8352V40.875H91.108C91.108 40.428 91.017 40.0322 90.8352 39.6875C90.6534 39.339 90.3977 39.0644 90.0682 38.8636C89.7424 38.6629 89.3598 38.5625 88.9205 38.5625C88.4432 38.5625 88.0265 38.6799 87.6705 38.9148C87.3182 39.1458 87.0455 39.4489 86.8523 39.8239C86.6629 40.1951 86.5682 40.5985 86.5682 41.0341V42.0284C86.5682 42.6117 86.6705 43.108 86.875 43.517C87.0833 43.9261 87.3731 44.2386 87.7443 44.4545C88.1155 44.6667 88.5492 44.7727 89.0455 44.7727C89.3674 44.7727 89.661 44.7273 89.9261 44.6364C90.1913 44.5417 90.4205 44.4015 90.6136 44.2159C90.8068 44.0303 90.9545 43.8011 91.0568 43.5284L92.6648 43.8182C92.536 44.2917 92.3049 44.7064 91.9716 45.0625C91.642 45.4148 91.2273 45.6894 90.7273 45.8864C90.2311 46.0795 89.6648 46.1761 89.0284 46.1761ZM97.9247 46.1705C97.2202 46.1705 96.5914 45.9905 96.0384 45.6307C95.4891 45.267 95.0573 44.75 94.7429 44.0795C94.4323 43.4053 94.277 42.5966 94.277 41.6534C94.277 40.7102 94.4342 39.9034 94.7486 39.233C95.0668 38.5625 95.5024 38.0492 96.0554 37.6932C96.6084 37.3371 97.2353 37.1591 97.9361 37.1591C98.4777 37.1591 98.9134 37.25 99.2429 37.4318C99.5762 37.6098 99.8338 37.8182 100.016 38.0568C100.201 38.2955 100.345 38.5057 100.447 38.6875H100.55V34.3636H102.249V46H100.589V44.642H100.447C100.345 44.8277 100.197 45.0398 100.004 45.2784C99.8149 45.517 99.5535 45.7254 99.2202 45.9034C98.8868 46.0814 98.455 46.1705 97.9247 46.1705ZM98.2997 44.7216C98.7884 44.7216 99.2012 44.5928 99.5384 44.3352C99.8793 44.0739 100.137 43.7121 100.311 43.25C100.489 42.7879 100.578 42.25 100.578 41.6364C100.578 41.0303 100.491 40.5 100.317 40.0455C100.143 39.5909 99.8868 39.2367 99.5497 38.983C99.2126 38.7292 98.7959 38.6023 98.2997 38.6023C97.7884 38.6023 97.3622 38.7348 97.0213 39C96.6804 39.2652 96.4228 39.6269 96.2486 40.0852C96.0781 40.5436 95.9929 41.0606 95.9929 41.6364C95.9929 42.2197 96.08 42.7443 96.2543 43.2102C96.4285 43.6761 96.6861 44.0455 97.027 44.3182C97.3717 44.5871 97.7959 44.7216 98.2997 44.7216ZM104.81 46V34.3636H106.509V38.6875H106.611C106.709 38.5057 106.851 38.2955 107.037 38.0568C107.223 37.8182 107.48 37.6098 107.81 37.4318C108.139 37.25 108.575 37.1591 109.116 37.1591C109.821 37.1591 110.45 37.3371 111.003 37.6932C111.556 38.0492 111.99 38.5625 112.304 39.233C112.622 39.9034 112.781 40.7102 112.781 41.6534C112.781 42.5966 112.624 43.4053 112.31 44.0795C111.995 44.75 111.563 45.267 111.014 45.6307C110.465 45.9905 109.838 46.1705 109.134 46.1705C108.603 46.1705 108.17 46.0814 107.832 45.9034C107.499 45.7254 107.238 45.517 107.048 45.2784C106.859 45.0398 106.713 44.8277 106.611 44.642H106.469V46H104.81ZM106.474 41.6364C106.474 42.25 106.563 42.7879 106.741 43.25C106.92 43.7121 107.177 44.0739 107.514 44.3352C107.851 44.5928 108.264 44.7216 108.753 44.7216C109.26 44.7216 109.685 44.5871 110.026 44.3182C110.366 44.0455 110.624 43.6761 110.798 43.2102C110.976 42.7443 111.065 42.2197 111.065 41.6364C111.065 41.0606 110.978 40.5436 110.804 40.0852C110.634 39.6269 110.376 39.2652 110.031 39C109.69 38.7348 109.264 38.6023 108.753 38.6023C108.26 38.6023 107.844 38.7292 107.503 38.983C107.166 39.2367 106.91 39.5909 106.736 40.0455C106.562 40.5 106.474 41.0303 106.474 41.6364ZM117.229 46.1932C116.676 46.1932 116.176 46.0909 115.729 45.8864C115.282 45.678 114.928 45.3769 114.666 44.983C114.409 44.589 114.28 44.1061 114.28 43.5341C114.28 43.0417 114.375 42.6364 114.564 42.3182C114.753 42 115.009 41.7481 115.331 41.5625C115.653 41.3769 116.013 41.2367 116.411 41.142C116.808 41.0473 117.214 40.9754 117.626 40.9261C118.149 40.8655 118.573 40.8163 118.899 40.7784C119.225 40.7367 119.462 40.6705 119.609 40.5795C119.757 40.4886 119.831 40.3409 119.831 40.1364V40.0966C119.831 39.6004 119.691 39.2159 119.411 38.9432C119.134 38.6705 118.721 38.5341 118.172 38.5341C117.6 38.5341 117.149 38.661 116.82 38.9148C116.494 39.1648 116.268 39.4432 116.143 39.75L114.547 39.3864C114.736 38.8561 115.013 38.428 115.376 38.1023C115.744 37.7727 116.166 37.5341 116.643 37.3864C117.121 37.2348 117.623 37.1591 118.149 37.1591C118.498 37.1591 118.867 37.2008 119.257 37.2841C119.651 37.3636 120.018 37.5114 120.359 37.7273C120.704 37.9432 120.986 38.2519 121.206 38.6534C121.426 39.0511 121.536 39.5682 121.536 40.2045V46H119.876V44.8068H119.808C119.698 45.0265 119.534 45.2424 119.314 45.4545C119.094 45.6667 118.812 45.8428 118.467 45.983C118.123 46.1231 117.71 46.1932 117.229 46.1932ZM117.598 44.8295C118.068 44.8295 118.469 44.7367 118.803 44.5511C119.14 44.3655 119.395 44.1231 119.57 43.8239C119.748 43.5208 119.837 43.197 119.837 42.8523V41.7273C119.776 41.7879 119.659 41.8447 119.484 41.8977C119.314 41.947 119.119 41.9905 118.899 42.0284C118.679 42.0625 118.465 42.0947 118.257 42.125C118.049 42.1515 117.875 42.1742 117.734 42.1932C117.405 42.2348 117.104 42.3049 116.831 42.4034C116.562 42.5019 116.346 42.6439 116.183 42.8295C116.024 43.0114 115.945 43.2538 115.945 43.5568C115.945 43.9773 116.1 44.2955 116.411 44.5114C116.721 44.7235 117.117 44.8295 117.598 44.8295ZM127.474 46.1761C126.63 46.1761 125.902 45.9848 125.293 45.6023C124.687 45.2159 124.221 44.6837 123.895 44.0057C123.569 43.3277 123.406 42.5511 123.406 41.6761C123.406 40.7898 123.573 40.0076 123.906 39.3295C124.24 38.6477 124.709 38.1155 125.315 37.733C125.921 37.3504 126.635 37.1591 127.457 37.1591C128.12 37.1591 128.711 37.2822 129.23 37.5284C129.749 37.7708 130.168 38.1117 130.486 38.5511C130.808 38.9905 130.999 39.5038 131.06 40.0909H129.406C129.315 39.6818 129.107 39.3295 128.781 39.0341C128.459 38.7386 128.027 38.5909 127.486 38.5909C127.012 38.5909 126.598 38.7159 126.241 38.9659C125.889 39.2121 125.615 39.5644 125.418 40.0227C125.221 40.4773 125.122 41.0152 125.122 41.6364C125.122 42.2727 125.219 42.822 125.412 43.2841C125.605 43.7462 125.878 44.1042 126.23 44.358C126.586 44.6117 127.005 44.7386 127.486 44.7386C127.808 44.7386 128.099 44.6799 128.361 44.5625C128.626 44.4413 128.848 44.2689 129.026 44.0455C129.207 43.822 129.334 43.553 129.406 43.2386H131.06C130.999 43.803 130.815 44.3068 130.509 44.75C130.202 45.1932 129.791 45.5417 129.276 45.7955C128.764 46.0492 128.164 46.1761 127.474 46.1761ZM134.439 43.0398L134.428 40.9659H134.723L138.2 37.2727H140.234L136.268 41.4773H136.001L134.439 43.0398ZM132.876 46V34.3636H134.575V46H132.876ZM138.388 46L135.263 41.8523L136.433 40.6648L140.473 46H138.388Z" fill="white"/>
</g>
<defs>
<filter id="filter0_d_10_1163" x="-2" y="0" width="179" height="96" filterUnits="userSpaceOnUse" color-interpolation-filters="sRGB">
<feFlood flood-opacity="0" result="BackgroundImageFix"/>
<feColorMatrix in="SourceAlpha" type="matrix" values="0 0 0 0 0 0 0 0 0 0 0 0 0 0 0 0 0 0 127 0" result="hardAlpha"/>
<feOffset dy="8"/>
<feGaussianBlur stdDeviation="12"/>
<feColorMatrix type="matrix" values="0 0 0 0 0.509804 0 0 0 0 0.341176 0 0 0 0 0.898039 0 0 0 0.25 0"/>
<feBlend mode="normal" in2="BackgroundImageFix" result="effect1_dropShadow_10_1163"/>
<feBlend mode="normal" in="SourceGraphic" in2="effect1_dropShadow_10_1163" result="shape"/>
</filter>
</defs>
</svg>
